<svg width="72" height="72" viewBox="0 0 72 72" fill="none" xmlns="http://www.w3.org/2000/svg">
<rect width="72" height="72" rx="36" fill="url(#paint0_linear_1523_3843)"/>
<path d="M41.1717 24.0616L41.1585 27.4783M41.132 34.3115L41.1188 37.7282M41.0923 44.5615L41.0791 47.9781M24.0885 23.9954L48.005 24.0881C48.9112 24.0916 49.7788 24.4549 50.4171 25.0982C51.0553 25.7414 51.4119 26.6118 51.4084 27.518L51.3885 32.6429C50.4824 32.6394 49.612 32.996 48.9687 33.6343C48.3255 34.2725 47.9622 35.1402 47.9587 36.0463C47.9552 36.9525 48.3118 37.8229 48.95 38.4661C49.5883 39.1094 50.4559 39.4727 51.3621 39.4762L51.3422 44.6012C51.3387 45.5073 50.9754 46.375 50.3321 47.0132C49.6889 47.6515 48.8185 48.0081 47.9123 48.0046L23.9958 47.9119C23.0897 47.9084 22.2221 47.5451 21.5838 46.9018C20.9455 46.2586 20.5889 45.3882 20.5924 44.482L20.6123 39.3571C21.5185 39.3606 22.3889 39.004 23.0321 38.3657C23.6753 37.7274 24.0387 36.8598 24.0422 35.9537C24.0457 35.0475 23.6891 34.1771 23.0508 33.5339C22.4126 32.8906 21.5449 32.5273 20.6388 32.5238L20.6586 27.3988C20.6621 26.4927 21.0255 25.625 21.6687 24.9868C22.3119 24.3485 23.1824 23.9919 24.0885 23.9954Z" stroke="#F9F9FF" stroke-width="3" stroke-linecap="round" stroke-linejoin="round"/>
<defs>
<linearGradient id="paint0_linear_1523_3843" x1="9.13256" y1="11.5183" x2="59.8433" y2="66.8327" gradientUnits="userSpaceOnUse">
<stop stop-color="#4566DE"/>
<stop offset="1" stop-color="#744AD8"/>
</linearGradient>
</defs>
</svg>
